<svg width="166" height="60" viewBox="0 0 166 60" fill="none" xmlns="http://www.w3.org/2000/svg">
  <path d="M19.5 10H38.5V15H31.5V48H26.5V15H19.5V10Z" fill="white"/>
  <path d="M43.5 10H55C59.5 10 63 10.5 65.5 12.5C68 14.5 69.5 17.5 69.5 21.5C69.5 25.5 68 28.5 65.5 30.5C63 32.5 59.5 33 55 33H48.5V48H43.5V10ZM48.5 28H54.5C57 28 59 27.5 60 26.5C61 25.5 61.5 24 61.5 21.5C61.5 19 61 17.5 60 16.5C59 15.5 57 15 54.5 15H48.5V28Z" fill="white"/>
  <path d="M73.5 10H92C96 10 99 10.5 101 12C103 13.5 104 15.5 104 18.5C104 20.5 103.5 22 102.5 23.5C101.5 25 99.5 26 97 26.5V26.7C100 27.2 102 28 103 29.5C104 31 104.5 33 104.5 35.5C104.5 38.5 103.5 41 101.5 43C99.5 45 96 46 91 46H73.5V10ZM78.5 24.5H90C92.5 24.5 94.5 24 95.5 23C96.5 22 97 20.5 97 18.5C97 16.5 96.5 15 95.5 14C94.5 13 92.5 12.5 90 12.5H78.5V24.5ZM78.5 43.5H91C93.5 43.5 95.5 43 96.5 41.5C97.5 40 98 38.5 98 36.5C98 34.5 97.5 33 96.5 31.5C95.5 30 93.5 29.5 91 29.5H78.5V43.5Z" fill="white"/>
  <path d="M109 10H126C132 10 136.5 11.5 139.5 14.5C142.5 17.5 144 21.5 144 27C144 32.5 142.5 36.5 139.5 39.5C136.5 42.5 132 44 126 44H120V48H109V10ZM120 35H125C128 35 130 34.5 131.5 33.5C133 32.5 134 30 134 27C134 24 133 21.5 131.5 20.5C130 19.5 128 19 125 19H120V35Z" fill="white"/>
  <path d="M146 10H151V38C151 40.5 151.5 42.5 152.5 43.5C153.5 44.5 155 45 157 45C159 45 160.5 44.5 161.5 43.5C162.5 42.5 163 40.5 163 38V10H168V38C168 42.5 166.5 46 163.5 48.5C160.5 51 157 52 153 52C149 52 145.5 51 142.5 48.5C139.5 46 138 42.5 138 38V10H146Z" fill="white"/>
</svg>
